<svg width="129" height="52" viewBox="0 0 129 52" fill="none" xmlns="http://www.w3.org/2000/svg">
<g clip-path="url(#clip0_6850_13776)">
<g clip-path="url(#clip1_6850_13776)">
<path fill-rule="evenodd" clip-rule="evenodd" d="M49.8293 20.0391C51.0817 18.8809 52.2227 18.0965 53.257 17.6769C54.2868 17.2511 55.3829 17.0405 56.5456 17.0405C58.1149 17.0405 59.2884 17.4663 60.0677 18.3132C60.8516 19.1647 61.2412 20.1932 61.2412 21.4033C61.2412 22.1251 61.1685 22.8241 61.0294 23.5001L58.5695 35.0992H51.898L53.5013 27.5607C53.9018 25.641 54.1244 24.4996 54.1692 24.1303C54.2141 23.7671 54.2311 23.5107 54.2311 23.3688C54.2311 22.4426 53.8075 21.9832 52.9617 21.9832C51.9707 21.9832 51.1528 22.409 50.508 23.2498C49.8618 24.0906 49.3454 25.4259 48.9666 27.2433L47.32 35.0992H40.6531L42.2162 27.692C42.6275 25.7097 42.861 24.5332 42.912 24.1639C42.9615 23.8007 42.9846 23.5214 42.9846 23.3353C42.9846 22.438 42.5394 21.9832 41.6488 21.9832C40.9747 21.9832 40.2635 22.3357 39.5183 23.0392C38.7777 23.7442 38.2211 24.9421 37.8655 26.6299L36.0735 35.0992H29.3896L33.1065 17.4434H39.2832L38.7436 19.972L38.8101 20.0406C40.7134 18.0416 42.8501 17.0421 45.2141 17.0421C46.3042 17.0421 47.2612 17.303 48.1023 17.8264C48.9372 18.3483 49.5154 19.0869 49.8278 20.0422" fill="white"></path>
<path fill-rule="evenodd" clip-rule="evenodd" d="M28.306 35.0978H20.8166L20.5259 31.3622H12.2295L10.453 35.0978H2.60645L17.0085 10.7002H24.4453L28.306 35.0978ZM19.991 25.9296L19.0247 18.9238L15.0913 25.9296H19.991Z" fill="white"></path>
<path fill-rule="evenodd" clip-rule="evenodd" d="M82.0888 17.4434L72.5415 35.0976H64.5883L62.5645 17.4434H69.2128L70.108 27.5775L75.1483 17.4434H82.0888Z" fill="white"></path>
<path fill-rule="evenodd" clip-rule="evenodd" d="M91.3144 16.9888C94.3726 16.9888 96.5835 17.7884 97.9488 19.3846C99.314 20.9792 99.9711 22.8532 99.9247 24.988C99.8891 26.6224 99.4531 28.2811 98.609 29.9613C97.771 31.6475 96.5341 32.9873 94.8998 33.9685C93.264 34.9558 91.2665 35.4503 88.9055 35.4503C85.9138 35.4503 83.723 34.6888 82.3299 33.1628C80.9353 31.6414 80.2689 29.74 80.3169 27.4693C80.3555 25.6869 80.8147 23.961 81.7022 22.2977C82.5943 20.6344 83.8575 19.3342 85.4979 18.3973C87.1383 17.4603 89.0741 16.9888 91.3144 16.9888ZM89.4219 30.8799C90.6465 30.8799 91.6313 30.2329 92.3781 28.9388C93.1202 27.6509 93.513 26.2134 93.547 24.6416C93.5717 23.5002 93.3135 22.7006 92.7755 22.2397C92.2421 21.7804 91.6437 21.5469 90.9727 21.5469C89.5889 21.5469 88.5437 22.1939 87.8233 23.4941C87.1028 24.7881 86.7286 26.1173 86.6992 27.4678C86.6776 28.4444 86.9296 29.2562 87.4584 29.9033C87.9825 30.5503 88.6396 30.8799 89.4188 30.8799" fill="white"></path>
<path fill-rule="evenodd" clip-rule="evenodd" d="M125.091 11.1367L112.345 26.3967L117.008 35.0979H110.115L108.135 31.4019L105.112 35.0979H97.1807L105.06 25.6657L100.653 17.4437H107.544L109.228 20.6757L117.197 11.1367H125.091Z" fill="#E52722"></path>
<path d="M66.7815 39.0122H67.1294V42.5449H66.7552L64.5381 39.5524V42.5449H64.1855V39.0122H64.5582L66.7815 42.0032V39.0122Z" fill="white"></path>
<path d="M71.9948 39.221C72.2809 39.3813 72.5066 39.5979 72.6736 39.8696C72.8406 40.1427 72.9241 40.4418 72.9241 40.7699C72.9241 41.098 72.8406 41.3986 72.6736 41.6748C72.5066 41.951 72.2809 42.1693 71.9948 42.331C71.7104 42.4928 71.3965 42.5736 71.0548 42.5736C70.7131 42.5736 70.4008 42.4928 70.1148 42.331C69.8287 42.1693 69.603 41.9495 69.436 41.6748C69.269 41.3986 69.1855 41.0965 69.1855 40.7699C69.1855 40.4433 69.269 40.1427 69.436 39.8696C69.603 39.5964 69.8287 39.3797 70.1148 39.221C70.3992 39.0608 70.7131 38.9814 71.0548 38.9814C71.3965 38.9814 71.7104 39.0608 71.9948 39.221ZM70.3018 39.4911C70.0699 39.6224 69.8859 39.8009 69.7483 40.0268C69.6123 40.2526 69.5442 40.4998 69.5442 40.7699C69.5442 41.04 69.6123 41.2888 69.7483 41.5176C69.8844 41.7465 70.0699 41.9281 70.3018 42.0609C70.5338 42.1937 70.7873 42.2608 71.0594 42.2608C71.3316 42.2608 71.5789 42.1937 71.8093 42.0609C72.0397 41.9281 72.2237 41.7465 72.3597 41.5176C72.4958 41.2888 72.5654 41.04 72.5654 40.7699C72.5654 40.4998 72.4973 40.2526 72.3597 40.0268C72.2237 39.8009 72.0397 39.6224 71.8093 39.4911C71.5789 39.3599 71.3285 39.2943 71.0594 39.2943C70.7904 39.2943 70.5338 39.3599 70.3018 39.4911Z" fill="white"></path>
<path d="M79.1625 39.3781C78.9894 39.3292 78.8239 39.3048 78.6709 39.3048C78.4251 39.3048 78.2287 39.3537 78.0803 39.4483C77.9318 39.5444 77.8576 39.6757 77.8576 39.8405C77.8576 39.9854 77.8978 40.1029 77.9798 40.1945C78.0617 40.2845 78.1622 40.3562 78.2828 40.4097C78.4019 40.4615 78.5657 40.5195 78.7745 40.5836C79.0172 40.6538 79.212 40.724 79.3604 40.7927C79.5089 40.8613 79.6357 40.9621 79.7392 41.0933C79.8428 41.2245 79.8954 41.3985 79.8954 41.6137C79.8954 41.8029 79.8413 41.9692 79.7346 42.1142C79.6264 42.2592 79.4764 42.3706 79.2816 42.4499C79.0868 42.5293 78.8641 42.5689 78.6106 42.5689C78.357 42.5689 78.1174 42.5201 77.8808 42.4224C77.6443 42.3248 77.4402 42.1951 77.2686 42.0333L77.4324 41.7449C77.5932 41.899 77.7788 42.0211 77.9906 42.1081C78.2024 42.1951 78.4111 42.2393 78.6152 42.2393C78.8889 42.2393 79.1053 42.1844 79.2661 42.0745C79.4269 41.9646 79.5073 41.8181 79.5073 41.632C79.5073 41.484 79.4656 41.3619 79.3852 41.2673C79.3048 41.1727 79.2027 41.1009 79.0837 41.0506C78.9646 41.0002 78.7961 40.9407 78.5812 40.8736C78.3385 40.7988 78.1437 40.7301 77.9968 40.663C77.8499 40.5974 77.7247 40.4997 77.6226 40.37C77.5206 40.2403 77.4696 40.0709 77.4696 39.8618C77.4696 39.6833 77.5206 39.5261 77.6226 39.3918C77.7247 39.2575 77.8684 39.1538 78.0524 39.0805C78.2364 39.0088 78.4498 38.9722 78.6925 38.9722C78.8873 38.9722 79.0821 39.0012 79.2785 39.0576C79.4749 39.1156 79.648 39.1904 79.798 39.285L79.6449 39.5826C79.4981 39.491 79.3373 39.4223 79.1641 39.3735" fill="white"></path>
<path d="M82.0771 39.0122H84.4736V39.325H82.4312V40.5886H84.2587V40.9029H82.4312V42.2321H84.5401V42.5449H82.0771V39.0122Z" fill="white"></path>
<path d="M87.2667 41.9586C87.4662 42.16 87.7429 42.2623 88.0985 42.2623C88.4541 42.2623 88.7309 42.1616 88.9273 41.9586C89.1252 41.7572 89.2241 41.4733 89.2241 41.1101V39.0073H89.5782V41.1101C89.5782 41.5679 89.4483 41.9266 89.187 42.1875C88.9257 42.4469 88.5624 42.5766 88.0985 42.5766C87.6347 42.5766 87.2714 42.4469 87.0085 42.1875C86.7457 41.9281 86.6143 41.5695 86.6143 41.1101V39.0073H86.9668V41.1101C86.9668 41.4733 87.0673 41.7572 87.2667 41.9586Z" fill="white"></path>
<path d="M96.9381 42.5449L96.165 41.3928C96.0552 41.3989 95.9717 41.4034 95.9145 41.4034H94.9312V42.5449H94.5771V39.0122H95.913C96.3598 39.0122 96.7062 39.1144 96.9504 39.3174C97.1947 39.5219 97.3169 39.8103 97.3169 40.1842C97.3169 40.4772 97.2457 40.7213 97.102 40.9166C96.9582 41.112 96.7541 41.2493 96.4866 41.3256L97.3462 42.5434H96.9365L96.9381 42.5449ZM95.9145 41.0891C96.2562 41.0891 96.5191 41.0128 96.7031 40.8587C96.887 40.7061 96.9798 40.4848 96.9798 40.1949C96.9798 39.9049 96.887 39.6959 96.7031 39.5478C96.5191 39.3998 96.2562 39.325 95.9145 39.325H94.9312V41.0891H95.9145Z" fill="white"></path>
<path d="M99.9234 39.0122H99.5693V42.5449H99.9234V39.0122Z" fill="white"></path>
<path d="M101.833 39.0059H104.553V39.3248H103.37V42.5446H103.016V39.3248H101.833V39.0059Z" fill="white"></path>
<path d="M106.428 39.0059H106.868L108.271 41.6596L109.659 39.0059H110.098V42.5446H109.77L109.766 39.4911L108.363 42.1647H108.169L106.76 39.4911V42.5446H106.428V39.0059Z" fill="white"></path>
<path d="M114.942 39.221C115.227 39.3813 115.454 39.5979 115.621 39.8696C115.788 40.1427 115.871 40.4418 115.871 40.7699C115.871 41.098 115.788 41.3986 115.621 41.6748C115.454 41.951 115.227 42.1693 114.942 42.331C114.658 42.4928 114.344 42.5736 114.002 42.5736C113.66 42.5736 113.348 42.4928 113.062 42.331C112.778 42.1693 112.55 41.9495 112.383 41.6748C112.216 41.3986 112.133 41.0965 112.133 40.7699C112.133 40.4433 112.216 40.1427 112.383 39.8696C112.55 39.5964 112.778 39.3797 113.062 39.221C113.347 39.0608 113.66 38.9814 114.002 38.9814C114.344 38.9814 114.656 39.0608 114.942 39.221ZM113.249 39.4911C113.017 39.6224 112.833 39.8009 112.696 40.0268C112.56 40.2526 112.492 40.4998 112.492 40.7699C112.492 41.04 112.56 41.2888 112.696 41.5176C112.832 41.7465 113.016 41.9281 113.249 42.0609C113.481 42.1937 113.733 42.2608 114.007 42.2608C114.28 42.2608 114.526 42.1937 114.757 42.0609C114.987 41.9281 115.171 41.7465 115.307 41.5176C115.443 41.2888 115.511 41.04 115.511 40.7699C115.511 40.4998 115.443 40.2526 115.307 40.0268C115.171 39.8009 114.987 39.6224 114.757 39.4911C114.526 39.3599 114.276 39.2943 114.007 39.2943C113.738 39.2943 113.481 39.3599 113.249 39.4911Z" fill="white"></path>
<path d="M119.129 35.098C118.273 35.098 117.575 34.4098 117.575 33.5644C117.575 32.719 118.273 32.0308 119.129 32.0308C119.986 32.0308 120.683 32.719 120.683 33.5644C120.683 34.4098 119.986 35.098 119.129 35.098ZM119.129 32.3588C118.455 32.3588 117.906 32.9006 117.906 33.5659C117.906 34.2312 118.455 34.773 119.129 34.773C119.803 34.773 120.352 34.2312 120.352 33.5659C120.352 32.9006 119.803 32.3588 119.129 32.3588Z" fill="white"></path>
<path d="M118.401 32.6685H119.094C119.521 32.6685 119.85 32.7951 119.85 33.1797C119.85 33.5642 119.521 33.7183 119.094 33.7183H118.766V34.3913H118.401V32.6685ZM119.057 33.4727C119.338 33.4727 119.491 33.375 119.491 33.1781C119.491 32.9813 119.338 32.9111 119.057 32.9111H118.766V33.4711H119.057V33.4727ZM119.026 33.6359L119.29 33.4543L119.932 34.3913H119.522L119.026 33.6359Z" fill="white"></path>
</g>
</g>
<defs>
<clipPath id="clip0_6850_13776">
<rect width="129" height="51" fill="white" transform="translate(0 0.5)"></rect>
</clipPath>
<clipPath id="clip1_6850_13776">
<rect width="122.485" height="31.875" fill="white" transform="translate(2.60645 10.7002)"></rect>
</clipPath>
</defs>
</svg>
